<mxfile host="app.diagrams.net" modified="2024-04-23T12:35:45.459Z" agent="Mozilla/5.0 (Windows NT 10.0; Win64; x64) AppleWebKit/537.36 (KHTML, like Gecko) Chrome/123.0.0.0 Safari/537.36" version="24.2.5" etag="YhRtu9j1W7fDv6_D6nRs" type="github">
  <diagram name="Page-1" id="5KDvzoG_d-YJvasXFiHj">
    <mxGraphModel>
      <root>
        <mxCell id="0" />
        <mxCell id="1" parent="0" />
      </root>
    </mxGraphModel>
  </diagram>
</mxfile>
